<?xml version="1.0" encoding="UTF-8"?>
<svg id="a" xmlns="http://www.w3.org/2000/svg" viewBox="0 0 1292.5312 311.5547">
    <defs>
        <style>.b{fill:#f37165;}.c{fill:#5bb498;}.d{fill:#2eb8d5;}.e{fill:#a33a7b;}.f{fill:#f55291;}</style>
    </defs>
    <path class="b"
          d="m145.1504,185.6016H50.9434l-18.6875,47.1035c-2.8164,6.9121-8.1924,9.9844-13.5684,9.9844-6.9116,0-13.8237-5.1201-13.8237-13.0566,0-2.3037.5122-4.3516,1.5361-6.9111L81.9189,37.6357c4.0957-9.728,13.312-14.5918,22.5278-14.5918s18.6875,4.8638,22.5278,14.5918l72.1909,176.6377c1.2798,3.3281,2.0479,6.3994,2.0479,9.2158,0,11.7754-10.2397,19.2002-20.4795,19.2002-7.4243,0-14.8481-3.8408-18.4321-12.7998l-17.1514-44.2881Zm-8.96-24.5757c-2.3042-6.3999-20.7358-55.5513-34.0479-89.8545-.7681-1.5361-2.0479-2.3042-3.3281-2.3042s-2.5596.7681-3.0718,2.3042c-13.8237,34.5596-32.2554,83.4546-34.5596,89.8545h75.0073Z"/>
    <path class="e"
          d="m326.9082,226.5615c-9.4717,12.2871-28.9277,17.9199-46.3354,17.9199-39.1675,0-55.5513-23.04-55.5513-63.2314v-75.519c0-12.2881,8.96-18.4321,17.9199-18.4321,8.7041,0,17.6636,6.144,17.6636,18.4321v71.4229c0,33.5356,6.6562,45.311,30.2075,45.311,15.8721,0,36.0957-14.8472,36.0957-38.3989v-78.335c0-12.2881,8.96-18.4321,17.6641-18.4321,8.9595,0,17.9194,6.144,17.9194,18.4321v122.3667c0,9.9834-8.96,15.1035-17.6636,15.1035-8.96,0-17.9199-5.1201-17.9199-15.1035v-1.5361Z"/>
    <path class="c"
          d="m413.9492,111.3628h-17.4077c-7.6797,0-11.7759-5.6318-11.7759-11.0078,0-5.6318,4.0962-11.2642,12.0317-11.2642h17.1519v-32.7676c0-12.0317,8.7041-17.9194,17.4077-17.9194,8.96,0,17.6641,5.8877,17.6641,17.9194v32.7676h27.6475c7.4238,0,11.2642,5.6323,11.2642,11.2642s-3.584,11.0078-11.0083,11.0078h-27.9033v87.5508c0,13.312,2.0479,20.48,13.3115,20.48,3.8403,0,8.96-1.0244,15.6162-2.8164.7676-.2559,1.5356-.2559,2.3037-.2559,5.6318,0,10.4961,5.1201,10.4961,11.0078,0,10.2402-15.6157,16.3838-40.9595,16.3838-14.5918,0-35.8398-5.8877-35.8398-38.1436v-94.2065Z"/>
    <path class="d"
          d="m580.0898,244.4814c-49.9194,0-79.8711-35.584-79.8711-78.5913,0-42.7515,29.9517-78.335,79.8711-78.335,50.4316,0,80.127,35.5835,80.127,78.335,0,43.0073-29.6953,78.5913-80.127,78.5913Zm42.7515-79.3594c0-34.8154-13.5679-58.3672-41.4712-58.3672-27.1357,0-43.5195,24.0635-43.5195,58.8789,0,35.3276,14.0796,59.1357,41.9834,59.1357,27.6475,0,43.0073-24.5762,43.0073-59.6475Z"/>
    <path class="f"
          d="m726.5215,156.6743v66.8149c0,13.0557-9.4717,19.7119-18.9434,19.7119s-18.9443-6.6562-18.9443-19.7119V56.0674c0-20.9917,14.5918-30.7197,31.7441-30.7197h63.4873c54.0146,0,84.9902,22.272,84.9902,64.2554,0,28.4155-19.9678,67.0713-79.3584,67.0713h-62.9756Zm48.8955-23.5518c34.0479,0,51.1992-15.3599,51.1992-44.5435,0-28.1597-20.9912-42.2397-46.0791-42.2397h-43.5195c-5.376,0-10.4961,3.8403-10.4961,10.752v76.0312h48.8955Z"/>
    <path class="f"
          d="m996.3428,246.0166c-58.3672,0-107.0068-34.0469-107.0068-111.6143,0-70.6548,48.8955-114.1743,111.8711-114.1743,35.8389,0,72.1904,22.0156,72.1904,38.3994,0,7.4238-5.8877,13.5679-12.7998,13.5679-3.3281,0-7.168-1.5361-10.4961-5.376-12.0312-13.8237-25.8555-22.5278-48.8945-22.5278-47.8721,0-69.6318,42.7515-69.6318,90.1108,0,57.0874,31.2314,84.4785,70.6553,84.4785,23.5518,0,40.1914-13.0552,55.8076-26.8794,3.0713-2.5596,6.1436-3.8398,9.2158-3.8398,6.9121,0,13.0557,6.3999,13.0557,13.5679,0,3.3281-1.2803,6.9121-4.3516,10.2402-17.4082,18.6875-42.4961,34.0469-79.6152,34.0469Z"/>
    <path class="f"
          d="m1105.9102,56.3232c0-20.4795,14.335-30.9756,32.2549-30.9756h61.1836c52.2236,0,79.8711,21.5039,79.8711,59.6475,0,19.7119-14.3359,48.8955-55.8076,57.3433,21.7598,25.3438,50.1758,56.063,59.3916,66.8149,3.584,4.3525,5.1201,8.7041,5.1201,13.0557,0,10.2402-8.7041,20.4805-20.9922,20.4805-5.8877,0-12.0322-2.8164-17.1514-9.7285-10.752-14.5918-48.3838-63.231-67.0713-88.8306h-39.4238v79.3589c0,13.0557-9.2158,19.7119-18.6875,19.7119-9.2158,0-18.6875-6.6562-18.6875-19.7119V56.3232Zm80.6387,65.7915c34.0469,0,52.9912-14.0801,52.9912-39.6797,0-23.2959-17.9199-35.8394-42.2393-35.8394h-43.2637c-6.1436,0-10.752,4.3516-10.752,10.752v64.7671h43.2637Z"/>
</svg>